<svg width="512" height="513" viewBox="0 0 512 513" fill="none" xmlns="http://www.w3.org/2000/svg">
<path d="M246.558 195.859C250.693 199.932 257.348 199.884 261.424 195.752L337.326 118.8C341.401 114.668 341.354 108.017 337.219 103.943L240.524 8.67978C236.39 4.60665 229.735 4.6543 225.659 8.78626L149.757 85.7386C145.681 89.8706 145.729 96.5222 149.863 100.595L246.558 195.859Z" fill="white" stroke="#18233B" stroke-width="9.00735"/>
<rect x="88.282" y="218.647" width="156.713" height="129.139" rx="10.5086" transform="rotate(-90 88.282 218.647)" fill="#3D73FF" stroke="#18233B" stroke-width="9.00735"/>
<mask id="mask0_1_1537" style="mask-type:alpha" maskUnits="userSpaceOnUse" x="128" y="108" width="50" height="64">
<rect x="128.328" y="108.777" width="49.0391" height="63.0502" fill="white"/>
</mask>
<g mask="url(#mask0_1_1537)">
<path d="M131.828 101.773L152.845 140.304M152.845 140.304L173.862 101.773M152.845 140.304H131.828M152.845 140.304H173.862M152.845 140.304V154.315M152.845 171.829V154.315M152.845 154.315H131.828M152.845 154.315H173.862" stroke="#18233B" stroke-width="7.00559"/>
</g>
<rect x="6.37103" width="156.755" height="129.105" rx="10.5086" transform="matrix(-0.707314 -0.7069 -0.707314 0.7069 208.61 261.206)" fill="white" stroke="#18233B" stroke-width="9.00735"/>
<g clip-path="url(#clip0_1_1537)">
<path d="M116.679 242.433C112.916 238.561 106.297 239.81 100.69 244.355C97.4053 247.034 94.9339 247.805 92.9642 245.836C91.0828 243.956 91.5985 240.645 93.8469 238.631C97.9395 234.977 100.899 236.811 102.362 238.273C102.362 238.273 106.626 234.104 106.58 234.057C103.017 230.496 97.828 229.415 92.7087 232.683L88.4907 228.468L84.3098 232.646L88.3792 236.713C84.7325 241.732 85.8242 247.623 88.7555 250.637C92.6298 254.629 98.1067 253.529 104.355 248.863C108.211 245.938 111.016 245.725 112.703 247.475C114.533 249.36 115.1 252.35 111.606 255.841C108.29 259.156 104.88 258.469 102.72 256.31L98.1671 260.86C102.041 264.732 106.956 265.503 112.707 261.073L116.767 265.131L120.948 260.953L116.93 256.937C122.091 250.284 118.835 244.661 116.679 242.433Z" fill="#18233B"/>
<path d="M82.7443 267.166C78.5025 262.927 75.6999 257.463 74.7322 251.546C73.7645 245.629 74.6805 239.558 77.3509 234.189L72.8959 229.737C69.1231 236.336 67.6262 243.992 68.6358 251.525C69.6454 259.058 73.1054 266.051 78.4829 271.425C83.8604 276.8 90.857 280.258 98.3946 281.267C105.932 282.276 113.593 280.78 120.196 277.009L115.741 272.557C110.369 275.225 104.294 276.141 98.3737 275.174C92.4533 274.207 86.9863 271.406 82.7443 267.166Z" fill="#18233B"/>
<path d="M85.4846 217.015L89.9257 221.454C95.3195 218.695 101.45 217.716 107.435 218.658C113.421 219.6 118.953 222.414 123.238 226.696C127.522 230.978 130.338 236.507 131.281 242.489C132.223 248.471 131.243 254.598 128.483 259.988L132.924 264.427C136.79 257.812 138.355 250.104 137.373 242.507C136.392 234.91 132.921 227.852 127.501 222.435C122.081 217.019 115.019 213.549 107.417 212.568C99.8154 211.588 92.1029 213.152 85.4846 217.015Z" fill="#18233B"/>
</g>
<rect x="60.6238" y="293.793" width="156.799" height="129.07" rx="10.5086" fill="white" stroke="#18233B" stroke-width="9.00735"/>
<path d="M160.032 386.36C160.032 386.36 123.252 386.36 117.998 386.36C118.78 386.36 128.507 382.858 128.507 372.349C128.507 368.591 128.507 364.778 128.507 358.338M156.941 340.824C155.138 337.468 150.984 330.316 142.227 330.316C133.47 330.316 128.507 337.321 128.507 347.83C128.507 349.825 128.507 355.774 128.507 358.338M128.507 358.338H117.998M128.507 358.338H146.021" stroke="#18233B" stroke-width="7.00559"/>
<rect x="-0.0455642" y="6.36713" width="156.756" height="129.104" rx="10.5086" transform="matrix(0.712354 -0.70182 -0.702237 -0.711943 239.048 516.227)" fill="#3D73FF" stroke="#18233B" stroke-width="9.00735"/>
<rect x="291.344" y="293.793" width="156.799" height="129.07" rx="10.5086" fill="white" stroke="#18233B" stroke-width="9.00735"/>
<path d="M388.997 339.075C387.245 337.323 381.991 333.82 373.234 333.82C360.512 333.82 354.635 341.807 352.841 351.334M388.997 377.605C387.245 379.357 381.991 382.859 373.234 382.859C360.512 382.859 354.635 374.873 352.841 365.345M352.841 351.334C352.413 353.611 352.217 355.975 352.217 358.34C352.217 360.704 352.413 363.069 352.841 365.345M352.841 351.334H341.709M352.841 351.334H376.737M352.841 365.345H341.709H376.737" stroke="#18233B" stroke-width="7.00559"/>
<rect x="-6.37102" width="156.755" height="129.105" rx="10.5086" transform="matrix(0.707314 -0.7069 0.707314 0.7069 312.399 252.199)" fill="white" stroke="#18233B" stroke-width="9.00735"/>
<g clip-path="url(#clip1_1_1537)">
<path d="M417.258 272.426C420.705 268.331 419.371 261.956 419.371 261.956C419.371 261.956 425.62 265.536 431.951 260.22C435.988 256.826 437.526 250.61 433.377 243.009L443.054 237.387L439.509 231.291L429.856 236.9L426.916 231.844L436.569 226.235L433.015 220.13L423.362 225.739L417.653 215.919L411.558 219.457L415.037 225.432L385.562 242.559L382.092 236.575L375.625 240.326L381.335 250.145L371.667 255.768L375.212 261.919L384.884 256.302L387.824 261.357L378.125 266.966L381.702 273.076L391.373 267.458L392.2 268.869C399.271 280.671 411.312 279.483 417.258 272.426ZM420.914 235.539C420.914 235.539 422.368 238.005 424.426 241.575C426.377 244.964 426.052 249.356 422.763 251.39C419.474 253.423 414.995 252.337 412.798 248.692C410.787 245.345 409.128 242.387 409.128 242.387L420.914 235.539ZM396.135 260.74C394.026 257.277 391.438 252.666 391.438 252.666L403.67 245.549C403.67 245.549 405.993 249.727 408.19 253.316C410.796 257.629 410.638 262.012 406.833 264.292C403.029 266.571 398.978 265.411 396.135 260.74Z" fill="#18233B"/>
</g>
<g clip-path="url(#clip2_1_1537)">
<rect x="291.338" y="218.648" width="156.713" height="129.139" rx="10.5086" transform="rotate(-90 291.338 218.648)" fill="#3D73FF" stroke="#18233B" stroke-width="9.00735"/>
<path d="M338.377 154.312C341.88 157.815 348.886 161.318 355.891 161.318M355.891 161.318C364.648 161.318 373.405 159.566 373.405 150.809C373.405 142.052 364.822 140.301 355.891 140.301M355.891 161.318V140.301M355.891 161.318V171.826M355.891 140.301C347.134 140.301 338.377 138.549 338.377 129.792C338.377 121.036 347.134 119.284 355.891 119.284M355.891 140.301V119.284M355.891 119.284C362.897 119.284 369.902 122.787 373.405 126.29M355.891 119.284V108.776" stroke="#18233B" stroke-width="7.00559"/>
<path d="M273.034 169.01C277.168 173.084 283.825 173.036 287.9 168.904L337.325 118.795C341.401 114.664 341.353 108.013 337.22 103.939L298.616 65.8986C294.482 61.8247 287.826 61.8721 283.75 66.0043L234.325 116.113C230.249 120.245 230.297 126.896 234.43 130.969L273.034 169.01Z" fill="white" stroke="#18233B" stroke-width="9.00735"/>
</g>
<path d="M257.512 79.7188L257.541 91.7736L269.603 91.7446L269.574 79.6898L257.512 79.7188Z" fill="#18233B"/>
<path d="M217.479 119.925L217.508 131.98L229.57 131.951L229.541 119.896L217.479 119.925Z" fill="#18233B"/>
<path d="M257.613 119.833L237.619 119.881L237.648 131.934L269.701 131.857L269.624 99.8221L257.565 99.8511L257.613 119.833Z" fill="#18233B"/>
<path d="M229.465 91.8434L249.459 91.7953L249.43 79.7428L217.377 79.8199L217.454 111.855L229.513 111.826L229.465 91.8434Z" fill="#18233B"/>
<path d="M237.563 99.9041L237.592 111.808L249.503 111.779L249.474 99.8755L237.563 99.9041Z" fill="#18233B"/>
<path d="M227.907 398.127L271.758 387.255L261.509 431.231L235.059 424.461L227.907 398.127Z" fill="#18233B"/>
<path d="M232.019 427.54L258.235 433.472L219.179 440.558L225.326 401.05L232.019 427.54Z" fill="#18233B"/>
<defs>
<clipPath id="clip0_1_1537">
<rect width="84.0669" height="84.0669" fill="white" transform="matrix(0.707314 -0.7069 0.707314 0.7069 43.5356 246.929)"/>
</clipPath>
<clipPath id="clip1_1_1537">
<rect width="84.0669" height="84.0669" fill="white" transform="matrix(0.707314 0.7069 -0.707314 0.7069 408.989 189.167)"/>
</clipPath>
<clipPath id="clip2_1_1537">
<rect width="133.648" height="163.586" fill="white" transform="translate(296.483 64.8824)"/>
</clipPath>
</defs>
</svg>
