<svg width="146" height="64" viewBox="0 0 146 64" fill="none" xmlns="http://www.w3.org/2000/svg">
<path d="M30.7847 24.3536C31.2977 24.8591 32.1237 24.8532 32.6294 24.3404L42.0488 14.7907C42.5545 14.278 42.5486 13.4525 42.0356 12.9471L30.0359 1.125C29.5228 0.619526 28.6969 0.625448 28.1911 1.13821L18.7718 10.6879C18.266 11.2006 18.2719 12.0261 18.785 12.5316L30.7847 24.3536Z" fill="#1A263E" stroke="#F0F0F6" stroke-width="1.1178"/>
<rect x="11.1435" y="27.1819" width="19.4478" height="16.026" rx="1.3041" transform="rotate(-90 11.1435 27.1819)" fill="#3D73FF" stroke="#F0F0F6" stroke-width="1.1178"/>
<mask id="mask0_86_10856" style="mask-type:alpha" maskUnits="userSpaceOnUse" x="16" y="13" width="7" height="9">
<rect x="16.1123" y="13.5472" width="6.08567" height="7.82442" fill="white"/>
</mask>
<g mask="url(#mask0_86_10856)">
<path d="M16.5479 12.6779L19.156 17.4594M19.156 17.4594L21.7641 12.6779M19.156 17.4594H16.5479M19.156 17.4594H21.7641M19.156 17.4594V19.1982M19.156 21.3717V19.1982M19.156 19.1982H16.5479M19.156 19.1982H21.7641" stroke="#F0F0F6" stroke-width="0.869381"/>
</g>
<rect x="0.790634" width="19.4531" height="16.0217" rx="1.3041" transform="matrix(-0.707314 -0.7069 -0.707314 0.7069 26.0752 32.4631)" fill="#1A263E" stroke="#F0F0F6" stroke-width="1.1178"/>
<g clip-path="url(#clip0_86_10856)">
<path d="M14.6674 30.1332C14.2004 29.6526 13.3789 29.8076 12.6831 30.3717C12.2755 30.7041 11.9688 30.7998 11.7244 30.5555C11.4909 30.3221 11.5549 29.9113 11.8339 29.6613C12.3418 29.2079 12.709 29.4354 12.8906 29.6169C12.8906 29.6169 13.4198 29.0995 13.4141 29.0938C12.9719 28.6519 12.328 28.5176 11.6927 28.9232L11.1692 28.4001L10.6504 28.9186L11.1554 29.4233C10.7028 30.0462 10.8383 30.7773 11.2021 31.1512C11.6829 31.6467 12.3626 31.5102 13.1379 30.9311C13.6164 30.5682 13.9646 30.5417 14.1739 30.7589C14.401 30.9928 14.4714 31.3638 14.0378 31.7971C13.6262 32.2085 13.2031 32.1232 12.935 31.8553L12.3701 32.4199C12.8508 32.9004 13.4608 32.9961 14.1745 32.4464L14.6783 32.95L15.1972 32.4314L14.6985 31.9331C15.339 31.1074 14.9349 30.4097 14.6674 30.1332Z" fill="#F0F0F6"/>
<path d="M10.4564 33.203C9.93002 32.6768 9.58223 31.9988 9.46214 31.2645C9.34205 30.5302 9.45572 29.7768 9.78711 29.1105L9.23426 28.558C8.76605 29.377 8.58029 30.3271 8.70558 31.2619C8.83086 32.1968 9.26026 33.0645 9.9276 33.7315C10.5949 34.3984 11.4632 34.8276 12.3986 34.9528C13.334 35.078 14.2847 34.8923 15.1041 34.4244L14.5512 33.8719C13.8846 34.2031 13.1307 34.3167 12.396 34.1967C11.6613 34.0766 10.9828 33.7291 10.4564 33.203Z" fill="#F0F0F6"/>
<path d="M10.7976 26.9793L11.3487 27.5301C12.0181 27.1877 12.7788 27.0662 13.5216 27.1831C14.2644 27.3 14.951 27.6492 15.4827 28.1806C16.0144 28.712 16.3639 29.3982 16.4808 30.1406C16.5978 30.8829 16.4762 31.6432 16.1336 32.3122L16.6847 32.863C17.1645 32.0422 17.3587 31.0856 17.2369 30.1428C17.1152 29.2 16.6843 28.3241 16.0118 27.6519C15.3392 26.9797 14.4627 26.5491 13.5194 26.4274C12.576 26.3058 11.6189 26.4998 10.7976 26.9793Z" fill="#F0F0F6"/>
</g>
<rect x="7.71112" y="36.507" width="19.4586" height="16.0174" rx="1.3041" fill="#1A263E" stroke="#F0F0F6" stroke-width="1.1178"/>
<path d="M20.0461 47.9947C20.0461 47.9947 15.4819 47.9947 14.8298 47.9947C14.9268 47.9947 16.1339 47.56 16.1339 46.2559C16.1339 45.7895 16.1339 45.3163 16.1339 44.5171M19.6626 42.3437C19.4388 41.9272 18.9233 41.0396 17.8366 41.0396C16.7499 41.0396 16.1339 41.909 16.1339 43.2131C16.1339 43.4607 16.1339 44.1989 16.1339 44.5171M16.1339 44.5171H14.8298M16.1339 44.5171H18.3074" stroke="#F0F0F6" stroke-width="0.869381"/>
<rect x="-0.00565444" y="0.790151" width="19.4532" height="16.0216" rx="1.3041" transform="matrix(0.712354 -0.70182 -0.702237 -0.711943 29.8526 64.1111)" fill="#3D73FF" stroke="#F0F0F6" stroke-width="1.1178"/>
<rect x="36.3427" y="36.507" width="19.4586" height="16.0174" rx="1.3041" fill="#1A263E" stroke="#F0F0F6" stroke-width="1.1178"/>
<path d="M48.4609 42.1263C48.2435 41.9089 47.5915 41.4742 46.5047 41.4742C44.9259 41.4742 44.1966 42.4654 43.974 43.6477M48.4609 46.9079C48.2435 47.1252 47.5915 47.5599 46.5047 47.5599C44.9259 47.5599 44.1966 46.5688 43.974 45.3865M43.974 43.6477C43.9209 43.9302 43.8966 44.2236 43.8966 44.5171C43.8966 44.8105 43.9209 45.1039 43.974 45.3865M43.974 43.6477H42.5925M43.974 43.6477H46.9394M43.974 45.3865H42.5925H46.9394" stroke="#F0F0F6" stroke-width="0.869381"/>
<rect x="-0.790634" width="19.4531" height="16.0217" rx="1.3041" transform="matrix(0.707314 -0.7069 0.707314 0.7069 38.9556 31.3454)" fill="#1A263E" stroke="#F0F0F6" stroke-width="1.1178"/>
<g clip-path="url(#clip1_86_10856)">
<path d="M51.9696 33.8553C52.3973 33.3472 52.2319 32.5561 52.2319 32.5561C52.2319 32.5561 53.0073 33.0003 53.793 32.3406C54.294 31.9194 54.4848 31.148 53.97 30.2048L55.1708 29.5071L54.731 28.7506L53.533 29.4466L53.1681 28.8192L54.3661 28.1232L53.925 27.3655L52.7271 28.0615L52.0186 26.843L51.2622 27.282L51.694 28.0235L48.0362 30.1489L47.6055 29.4063L46.8031 29.8718L47.5116 31.0904L46.3119 31.7881L46.7517 32.5515L47.952 31.8543L48.3169 32.4818L47.1132 33.1778L47.5571 33.936L48.7574 33.2388L48.86 33.414C49.7374 34.8786 51.2317 34.7311 51.9696 33.8553ZM52.4233 29.2778C52.4233 29.2778 52.6037 29.5837 52.8591 30.0268C53.1012 30.4474 53.0609 30.9924 52.6527 31.2448C52.2446 31.4971 51.6888 31.3623 51.4161 30.91C51.1665 30.4946 50.9607 30.1276 50.9607 30.1276L52.4233 29.2778ZM49.3483 32.4051C49.0865 31.9753 48.7654 31.4032 48.7654 31.4032L50.2833 30.52C50.2833 30.52 50.5716 31.0385 50.8443 31.4839C51.1677 32.0191 51.1481 32.563 50.6759 32.8459C50.2038 33.1288 49.7011 32.9848 49.3483 32.4051Z" fill="#F0F0F6"/>
</g>
<g clip-path="url(#clip2_86_10856)">
<rect x="36.3417" y="27.1818" width="19.4478" height="16.026" rx="1.3041" transform="rotate(-90 36.3417 27.1818)" fill="#3D73FF" stroke="#F0F0F6" stroke-width="1.1178"/>
<path d="M42.1797 19.1981C42.6144 19.6328 43.4838 20.0675 44.3531 20.0675M44.3531 20.0675C45.4399 20.0675 46.5266 19.8501 46.5266 18.7634C46.5266 17.6767 45.4614 17.4593 44.3531 17.4593M44.3531 20.0675V17.4593M44.3531 20.0675V21.3715M44.3531 17.4593C43.2664 17.4593 42.1797 17.242 42.1797 16.1553C42.1797 15.0685 43.2664 14.8512 44.3531 14.8512M44.3531 17.4593V14.8512M44.3531 14.8512C45.2225 14.8512 46.0919 15.2859 46.5266 15.7206M44.3531 14.8512V13.5471" stroke="#F0F0F6" stroke-width="0.869381"/>
<path d="M34.071 21.0219C34.5841 21.5274 35.4101 21.5215 35.9159 21.0087L42.0495 14.7903C42.5552 14.2776 42.5493 13.4522 42.0363 12.9467L37.2457 8.22592C36.7326 7.72036 35.9066 7.72623 35.4008 8.23904L29.2672 14.4575C28.7615 14.9702 28.7674 15.7956 29.2803 16.3011L34.071 21.0219Z" fill="#1A263E" stroke="#F0F0F6" stroke-width="1.1178"/>
</g>
<g clip-path="url(#clip3_86_10856)">
<path d="M32.1431 9.94085L32.1467 11.4368L33.6436 11.4332L33.64 9.93725L32.1431 9.94085Z" fill="#F0F0F6"/>
<path d="M27.1763 14.9305L27.1799 16.4265L28.6768 16.4229L28.6732 14.9269L27.1763 14.9305Z" fill="#F0F0F6"/>
<path d="M32.1576 14.9193L29.6764 14.9252L29.68 16.4209L33.6578 16.4114L33.6482 12.4359L32.1517 12.4395L32.1576 14.9193Z" fill="#F0F0F6"/>
<path d="M28.664 11.4453L31.1452 11.4394L31.1416 9.94367L27.1638 9.95323L27.1734 13.9287L28.6699 13.9251L28.664 11.4453Z" fill="#F0F0F6"/>
<path d="M29.6686 12.4458L29.6721 13.923L31.1502 13.9195L31.1467 12.4422L29.6686 12.4458Z" fill="#F0F0F6"/>
</g>
<path d="M28.4703 49.4547L33.9121 48.1056L32.6402 53.5629L29.3579 52.7227L28.4703 49.4547Z" fill="#F0F0F6"/>
<path d="M28.9803 53.1052L32.2336 53.8413L27.3869 54.7206L28.1497 49.8177L28.9803 53.1052Z" fill="#F0F0F6"/>
<path d="M83.2649 24.0092C86.4349 24.0092 89.0204 26.5946 89.0204 29.7871C89.0204 32.9797 86.4349 35.5651 83.2649 35.5651H73.2827V38.9975C73.2827 39.4114 72.9472 39.7469 72.5333 39.7469H68.4564C68.0426 39.7469 67.707 39.4114 67.707 38.9975V24.7586C67.707 24.3447 68.0426 24.0092 68.4564 24.0092H83.2649ZM82.0284 31.1811C82.8153 31.1811 83.4448 30.574 83.4448 29.7871C83.4448 29.0227 82.8153 28.3932 82.0284 28.3932H74.0321C73.6182 28.3932 73.2827 28.7288 73.2827 29.1427V30.4316C73.2827 30.8455 73.6182 31.1811 74.0321 31.1811H82.0284Z" fill="#3D73FF"/>
<path d="M137.336 24.0092C141.697 24.0092 145.205 27.5389 145.205 31.878C145.205 36.2396 141.697 39.7469 137.336 39.7469H124.641C124.227 39.7469 123.891 39.4114 123.891 38.9975V24.7586C123.891 24.3447 124.227 24.0092 124.641 24.0092H137.336ZM136.481 35.0256C138.213 35.0256 139.629 33.6316 139.629 31.878C139.629 30.1469 138.213 28.7305 136.481 28.7305H129.467V35.0256H136.481Z" fill="#3D73FF"/>
<path d="M97.4858 39.7469C97.1668 39.7469 96.8828 39.545 96.778 39.2438L91.8231 25.0049C91.6536 24.5178 92.0152 24.0092 92.5308 24.0092H96.5631C96.8953 24.0092 97.1879 24.2279 97.2819 24.5466L100.242 34.5829H100.425L103.512 24.5384C103.608 24.2239 103.899 24.0092 104.228 24.0092H108.666C108.993 24.0092 109.283 24.2217 109.381 24.534L112.518 34.5215H112.688L115.597 24.5488C115.69 24.229 115.983 24.0092 116.316 24.0092H120.334C120.85 24.0092 121.211 24.5174 121.042 25.0043L116.099 39.2432C115.994 39.5447 115.71 39.7469 115.391 39.7469H110.547C110.229 39.7469 109.945 39.5455 109.84 39.2447L106.557 29.8493H106.308L103.024 39.2447C102.919 39.5455 102.635 39.7469 102.317 39.7469H97.4858Z" fill="#1A263E"/>
<defs>
<clipPath id="clip0_86_10856">
<rect width="10.4326" height="10.4326" fill="white" transform="matrix(0.707314 -0.7069 0.707314 0.7069 5.59058 30.6915)"/>
</clipPath>
<clipPath id="clip1_86_10856">
<rect width="10.4326" height="10.4326" fill="white" transform="matrix(0.707314 0.7069 -0.707314 0.7069 50.9421 23.5231)"/>
</clipPath>
<clipPath id="clip2_86_10856">
<rect width="16.5855" height="20.3007" fill="white" transform="translate(36.9807 8.09949)"/>
</clipPath>
<clipPath id="clip3_86_10856">
<rect width="10.4326" height="10.4326" fill="white" transform="matrix(0.705613 -0.708597 0.709011 0.705198 23.0315 13.2)"/>
</clipPath>
</defs>
</svg>
