<svg width="236" height="237" viewBox="0 0 236 237" fill="none" xmlns="http://www.w3.org/2000/svg">
<path d="M113.502 90.6612C115.413 92.5439 118.49 92.5218 120.373 90.612L155.457 55.043C157.341 53.1332 157.319 50.0587 155.408 48.176L110.713 4.14325C108.802 2.26056 105.726 2.28259 103.842 4.19247L68.7587 39.7614C66.8749 41.6713 66.8969 44.7458 68.8079 46.6284L113.502 90.6612Z" fill="white" stroke="#18233B" stroke-width="4.16339"/>
<rect x="40.3519" y="101.195" width="72.4358" height="59.691" rx="4.85728" transform="rotate(-90 40.3519 101.195)" fill="#3D73FF" stroke="#18233B" stroke-width="4.16339"/>
<mask id="mask0_2058_333" style="mask-type:alpha" maskUnits="userSpaceOnUse" x="58" y="50" width="24" height="30">
<rect x="58.8457" y="50.411" width="22.6669" height="29.143" fill="white"/>
</mask>
<g mask="url(#mask0_2058_333)">
<path d="M60.4648 47.1731L70.1792 64.9827M70.1792 64.9827L79.8936 47.1731M70.1792 64.9827H60.4648M70.1792 64.9827H79.8936M70.1792 64.9827V71.4589M70.1792 79.5542V71.4589M70.1792 71.4589H60.4648M70.1792 71.4589H79.8936" stroke="#18233B" stroke-width="3.23813"/>
</g>
<rect x="2.94483" width="72.4556" height="59.6749" rx="4.85728" transform="matrix(-0.707315 -0.706899 -0.707315 0.706899 95.9611 120.866)" fill="white" stroke="#18233B" stroke-width="4.16339"/>
<g clip-path="url(#clip0_2058_333)">
<path d="M53.4652 112.187C51.726 110.398 48.6662 110.975 46.0745 113.076C44.5564 114.314 43.4141 114.67 42.5037 113.76C41.634 112.891 41.8724 111.361 42.9116 110.43C44.8034 108.741 46.1711 109.589 46.8475 110.264C46.8475 110.264 48.8187 108.337 48.7972 108.316C47.1503 106.67 44.7518 106.17 42.3856 107.681L40.4359 105.732L38.5034 107.664L40.3844 109.543C38.6988 111.863 39.2034 114.586 40.5583 115.979C42.3491 117.825 44.8806 117.316 47.7687 115.159C49.5509 113.807 50.8478 113.709 51.6272 114.518C52.4732 115.389 52.7352 116.771 51.1205 118.385C49.5874 119.917 48.0113 119.599 47.0128 118.602L44.9086 120.705C46.6993 122.494 48.9711 122.851 51.6294 120.803L53.506 122.679L55.4385 120.748L53.5812 118.891C55.9668 115.816 54.4616 113.217 53.4652 112.187Z" fill="#18233B"/>
<path d="M37.786 123.621C35.8253 121.662 34.5299 119.136 34.0826 116.401C33.6353 113.666 34.0587 110.86 35.293 108.378L33.2338 106.32C31.49 109.371 30.798 112.909 31.2647 116.391C31.7314 119.873 33.3307 123.105 35.8163 125.59C38.3019 128.074 41.5358 129.672 45.0199 130.139C48.5039 130.605 52.0448 129.913 55.0969 128.171L53.0377 126.113C50.5547 127.346 47.7468 127.769 45.0102 127.322C42.2737 126.875 39.7467 125.581 37.786 123.621Z" fill="#18233B"/>
<path d="M39.0505 100.44L41.1033 102.492C43.5964 101.217 46.4299 100.764 49.1965 101.2C51.9632 101.635 54.5204 102.936 56.5008 104.915C58.4812 106.894 59.7828 109.45 60.2184 112.215C60.654 114.98 60.2013 117.812 58.9252 120.303L60.978 122.355C62.7649 119.298 63.4882 115.735 63.0347 112.223C62.5812 108.712 60.9765 105.449 58.4714 102.946C55.9662 100.442 52.7018 98.8382 49.1882 98.385C45.6745 97.9318 42.1096 98.6546 39.0505 100.44Z" fill="#18233B"/>
</g>
<rect x="27.5609" y="135.927" width="72.4761" height="59.6588" rx="4.85728" fill="white" stroke="#18233B" stroke-width="4.16339"/>
<path d="M73.5103 178.715C73.5103 178.715 56.5101 178.715 54.0815 178.715C54.4429 178.715 58.9387 177.096 58.9387 172.238C58.9387 170.501 58.9387 168.739 58.9387 165.762M72.0818 157.667C71.2483 156.116 69.3283 152.81 65.2806 152.81C61.233 152.81 58.9387 156.048 58.9387 160.905C58.9387 161.827 58.9387 164.577 58.9387 165.762M58.9387 165.762H54.0815M58.9387 165.762H67.0341" stroke="#18233B" stroke-width="3.23813"/>
<rect x="-0.0210606" y="2.94302" width="72.4559" height="59.6746" rx="4.85728" transform="matrix(0.712355 -0.701819 -0.702238 -0.711942 110.031 238.743)" fill="#3D73FF" stroke="#18233B" stroke-width="4.16339"/>
<rect x="134.205" y="135.928" width="72.4761" height="59.6588" rx="4.85728" fill="white" stroke="#18233B" stroke-width="4.16339"/>
<path d="M179.34 156.858C178.53 156.048 176.102 154.429 172.054 154.429C166.173 154.429 163.457 158.121 162.628 162.525M179.34 174.667C178.53 175.477 176.102 177.096 172.054 177.096C166.173 177.096 163.457 173.404 162.628 169.001M162.628 162.525C162.43 163.577 162.34 164.67 162.34 165.763C162.34 166.856 162.43 167.948 162.628 169.001M162.628 162.525H157.482M162.628 162.525H173.673M162.628 169.001H157.482H173.673" stroke="#18233B" stroke-width="3.23813"/>
<rect x="-2.94483" width="72.4556" height="59.6749" rx="4.85728" transform="matrix(0.707315 -0.706899 0.707315 0.706899 143.935 116.703)" fill="white" stroke="#18233B" stroke-width="4.16339"/>
<g clip-path="url(#clip1_2058_333)">
<path d="M192.41 126.051C194.003 124.159 193.387 121.212 193.387 121.212C193.387 121.212 196.275 122.867 199.201 120.41C201.067 118.841 201.778 115.967 199.861 112.455L204.333 109.856L202.695 107.038L198.233 109.63L196.874 107.294L201.336 104.701L199.693 101.879L195.231 104.472L192.592 99.9329L189.775 101.568L191.383 104.33L177.759 112.246L176.155 109.48L173.166 111.214L175.805 115.753L171.337 118.352L172.975 121.195L177.446 118.598L178.805 120.935L174.321 123.528L175.975 126.352L180.445 123.755L180.828 124.408C184.096 129.863 189.661 129.313 192.41 126.051ZM194.1 109.002C194.1 109.002 194.772 110.141 195.723 111.791C196.625 113.358 196.474 115.388 194.954 116.328C193.434 117.268 191.364 116.766 190.348 115.081C189.419 113.534 188.652 112.167 188.652 112.167L194.1 109.002ZM182.646 120.65C181.671 119.049 180.475 116.918 180.475 116.918L186.129 113.628C186.129 113.628 187.203 115.56 188.218 117.219C189.423 119.212 189.35 121.238 187.591 122.292C185.833 123.345 183.96 122.809 182.646 120.65Z" fill="#18233B"/>
</g>
<g clip-path="url(#clip2_2058_333)">
<rect x="134.209" y="101.194" width="72.4358" height="59.691" rx="4.85728" transform="rotate(-90 134.209 101.194)" fill="#3D73FF" stroke="#18233B" stroke-width="4.16339"/>
<path d="M155.94 71.4582C157.559 73.0773 160.797 74.6964 164.035 74.6964M164.035 74.6964C168.083 74.6964 172.13 73.8868 172.13 69.8392C172.13 65.7916 168.163 64.982 164.035 64.982M164.035 74.6964V64.982M164.035 74.6964V79.5535M164.035 64.982C159.987 64.982 155.94 64.1725 155.94 60.1249C155.94 56.0772 159.987 55.2677 164.035 55.2677M164.035 64.982V55.2677M164.035 55.2677C167.273 55.2677 170.511 56.8867 172.13 58.5058M164.035 55.2677V50.4105" stroke="#18233B" stroke-width="3.23813"/>
<path d="M125.737 78.2506C127.648 80.1336 130.724 80.1117 132.608 78.2017L155.454 55.0403C157.337 53.1306 157.315 50.0563 155.405 48.1736L131.863 24.9764C129.952 23.0934 126.875 23.1153 124.991 25.0253L102.146 48.1867C100.262 50.0964 100.284 53.1707 102.195 55.0534L125.737 78.2506Z" fill="white" stroke="#18233B" stroke-width="4.16339"/>
</g>
<path d="M118.569 36.9792L118.582 42.5511L124.157 42.5377L124.144 36.9658L118.569 36.9792Z" fill="#18233B"/>
<path d="M100.063 55.5635L100.076 61.1355L105.651 61.1221L105.638 55.5501L100.063 55.5635Z" fill="#18233B"/>
<path d="M118.614 55.5215L109.372 55.5437L109.386 61.1146L124.201 61.079L124.166 46.2719L118.592 46.2853L118.614 55.5215Z" fill="#18233B"/>
<path d="M105.603 42.5825L114.844 42.5602L114.831 36.9894L100.015 37.025L100.051 51.832L105.625 51.8186L105.603 42.5825Z" fill="#18233B"/>
<path d="M109.344 46.3089L109.358 51.811L114.863 51.7978L114.85 46.2956L109.344 46.3089Z" fill="#18233B"/>
<path d="M104.882 184.153L125.151 179.128L120.413 199.454L108.188 196.325L104.882 184.153Z" fill="#18233B"/>
<path d="M106.785 197.75L118.903 200.491L100.85 203.767L103.691 185.505L106.785 197.75Z" fill="#18233B"/>
<defs>
<clipPath id="clip0_2058_333">
<rect width="38.8574" height="38.8574" fill="white" transform="matrix(0.707315 -0.706898 0.707315 0.706898 19.6621 114.267)"/>
</clipPath>
<clipPath id="clip1_2058_333">
<rect width="38.8574" height="38.8574" fill="white" transform="matrix(0.707315 0.706899 -0.707315 0.706899 188.582 87.568)"/>
</clipPath>
<clipPath id="clip2_2058_333">
<rect width="66.31" height="94.8383" fill="white" transform="translate(131.746 11.1572)"/>
</clipPath>
</defs>
</svg>
